<svg aria-hidden="true" style="width:0;height:0;position:absolute;overflow:hidden" xmlns="http://www.w3.org/2000/svg"><defs><symbol id="icon-basil-phone-solid" viewBox="0 0 32 32"><path fill="#fff" style="fill:var(--color1,#fff)" d="M6.667 13.147a24.619 24.619 0 0 0 12.755 12.389l.907.404a4.669 4.669 0 0 0 5.773-1.663l1.185-1.765a1.336 1.336 0 0 0-.271-1.78L23 17.492a1.331 1.331 0 0 0-1.908.243l-1.243 1.676a16.186 16.186 0 0 1-7.347-7.348l1.675-1.243a1.339 1.339 0 0 0 .528-.902 1.328 1.328 0 0 0-.285-1.006l-3.24-4.016a1.334 1.334 0 0 0-1.78-.271L7.623 5.817a4.667 4.667 0 0 0-1.649 5.807l.692 1.521z"/></symbol><symbol id="icon-fa-arrow-up" viewBox="0 0 35 32"><path fill="#00a08c" style="fill:var(--color2,#00a08c)" d="M34.212 16.935c0 .739-.267 1.391-.802 1.956l-1.625 1.63a2.685 2.685 0 0 1-1.972.826c-.78 0-1.43-.275-1.95-.826l-6.37-6.37v15.304c0 .754-.271 1.366-.813 1.837s-1.195.707-1.961.707h-2.773c-.766 0-1.419-.235-1.961-.707s-.813-1.083-.813-1.837V14.151l-6.37 6.37c-.52.551-1.17.826-1.95.826s-1.43-.275-1.95-.826l-1.625-1.63c-.549-.551-.823-1.203-.823-1.956 0-.768.274-1.428.823-1.978L15.382.805c.506-.536 1.156-.804 1.95-.804.78 0 1.437.268 1.972.804l14.105 14.152c.534.565.802 1.225.802 1.978z"/></symbol><symbol id="icon-infrastructura" viewBox="0 0 36 32"><path fill="#efa411" style="fill:var(--color3,#efa411)" d="M25.623 7.5c0 3.412-4.591 9.494-6.607 12-.484.6-1.382.6-1.859 0-2.016-2.506-6.607-8.588-6.607-12 0-4.144 3.372-7.5 7.536-7.5s7.536 3.356 7.536 7.5zm.503 5.025c.22-.431.421-.863.603-1.287l.094-.231 7.285-2.9a1.505 1.505 0 0 1 2.066 1.394v16.925c0 .613-.377 1.163-.948 1.394l-9.1 3.619V12.526zM8.642 8.644c.151.881.452 1.769.804 2.594.182.425.383.856.603 1.287v15.713l-7.982 3.181a1.505 1.505 0 0 1-2.066-1.394V13.1c0-.612.377-1.162.948-1.394l7.693-3.062zM20.586 20.75c.873-1.087 2.242-2.856 3.529-4.813v15.581l-12.058-3.431v-12.15c1.287 1.956 2.657 3.725 3.53 4.812a3.203 3.203 0 0 0 4.999 0zM18.087 9.5c.666 0 1.305-.263 1.776-.732a2.495 2.495 0 0 0 0-3.536 2.517 2.517 0 0 0-3.552 0 2.495 2.495 0 0 0 0 3.536c.471.469 1.11.732 1.776.732z"/></symbol><symbol id="icon-location" viewBox="0 0 32 32"><path fill="#00a08c" style="fill:var(--color2,#00a08c)" d="M24 20a4.003 4.003 0 0 1 4 4 4.001 4.001 0 0 1-4 4 3.987 3.987 0 0 1-3.773-2.667h-1.56v-2.667h1.56A3.988 3.988 0 0 1 24 19.999zm0 2.667a1.33 1.33 0 0 0-1.333 1.334A1.333 1.333 0 1 0 24 22.667zm0-12a1.907 1.907 0 1 0 0-3.813 1.907 1.907 0 0 0 0 3.813zm0-7.24a5.334 5.334 0 0 1 5.333 5.333c0 3.987-5.333 9.907-5.333 9.907s-5.333-5.92-5.333-9.907A5.334 5.334 0 0 1 24 3.427zm-12.227 19.24h1.56v2.667h-1.56A3.99 3.99 0 0 1 8 28.001a4.003 4.003 0 0 1-1.333-7.773v-1.56h2.667v1.56a4.023 4.023 0 0 1 2.44 2.44zm-3.773 0a1.335 1.335 0 0 0-.943 2.277 1.335 1.335 0 0 0 1.886 0 1.335 1.335 0 0 0 0-1.886A1.335 1.335 0 0 0 8 22.667zM8 4a4.003 4.003 0 0 1 1.333 7.773v1.56H6.666v-1.56A3.99 3.99 0 0 1 3.999 8a4.003 4.003 0 0 1 4-4zm0 2.667a1.334 1.334 0 1 0 0 2.667 1.334 1.334 0 0 0 0-2.667zm6.667 18.666v-2.667h2.667v2.667h-2.667zm-5.334-8H6.666v-2.667h2.667v2.667z"/></symbol><symbol id="icon-logo" viewBox="0 0 542 32"><path fill="#fff" style="fill:var(--color1,#fff)" d="M780.99.718H-14.606v30.097H780.99V.718z"/></symbol><symbol id="icon-safery" viewBox="0 0 32 32"><path fill="#00538f" style="fill:var(--color4,#00538f)" d="M16.994.263a2.013 2.013 0 0 0-1.988 0l-14 8A2.008 2.008 0 0 0 0 10.001v20c0 1.106.894 2 2 2s2-.894 2-2V11.163l12-6.856 12 6.856v18.838c0 1.106.894 2 2 2s2-.894 2-2v-20c0-.719-.388-1.381-1.006-1.738l-14-8zM16 13a2.5 2.5 0 1 0 0-5 2.5 2.5 0 0 0 0 5zm-.5 17.5V25h1v5.5c0 .831.669 1.5 1.5 1.5s1.5-.669 1.5-1.5V19.594l1.681 3.119c.394.731 1.3 1 2.031.613s1-1.3.613-2.031l-2.369-4.394a5.499 5.499 0 0 0-4.844-2.894h-1.225a5.507 5.507 0 0 0-4.844 2.894l-2.369 4.394c-.394.731-.119 1.638.613 2.031s1.638.119 2.031-.613l1.681-3.119V30.5c0 .831.669 1.5 1.5 1.5s1.5-.669 1.5-1.5z"/></symbol><symbol id="icon-stability" viewBox="0 0 40 32"><path fill="#e7382f" style="fill:var(--color5,#e7382f)" d="M5.637 3.075a2.559 2.559 0 0 0-2.562 2.562v20.497a2.565 2.565 0 0 0 2.562 2.563h28.695a2.561 2.561 0 0 0 2.562-2.563V5.637a2.559 2.559 0 0 0-2.562-2.562H5.637zM1.651 1.651A5.637 5.637 0 0 1 5.637 0h28.695a5.637 5.637 0 0 1 5.637 5.637v20.497a5.637 5.637 0 0 1-5.637 5.637H5.637A5.637 5.637 0 0 1 0 26.134V5.637c0-1.495.594-2.929 1.651-3.986z"/><path fill="#e7382f" style="fill:var(--color5,#e7382f)" d="M6.149 7.686c0-.849.688-1.537 1.537-1.537h2.05a1.537 1.537 0 1 1 0 3.074h-2.05a1.537 1.537 0 0 1-1.537-1.537zm13.9.706a1.537 1.537 0 0 1 .597 2.09l-2.148 3.865h5.586a1.536 1.536 0 0 1 1.344 2.284l-3.417 6.149a1.537 1.537 0 0 1-2.687-1.493l2.148-3.865h-5.586a1.536 1.536 0 0 1-1.344-2.284l3.417-6.149a1.537 1.537 0 0 1 2.09-.597z"/></symbol><symbol id="icon-logo-mob" viewBox="0 0 191 32"><path fill="#fff" style="fill:var(--color1,#fff)" d="M275.187-.133H-5.147v10.605h280.334V-.133z"/><path fill="#fff" style="fill:var(--color1,#fff)" d="M275.187 10.464H-5.147v10.605h280.334V10.464z"/><path fill="#fff" style="fill:var(--color1,#fff)" d="M275.187 21.069H-5.147v10.605h280.334V21.069z"/></symbol><symbol id="icon-carbon_menu" viewBox="0 0 32 32"><path style="fill:var(--color1,#fff)" d="M4 6h24v2H4V6zm0 18h24v2H4v-2zm0-12h24v2H4v-2zm0 6h24v2H4v-2z"/></symbol><symbol id="icon-polygon" viewBox="0 0 37 32"><path fill="#00538f" style="fill:var(--color1,#00538f)" d="M18.667 32 .192 0h36.95L18.667 32z"/></symbol><symbol id="icon-close-black" viewBox="0 0 32 32"><path d="M32 3.223 28.777 0 16 12.777 3.223 0 0 3.223 12.777 16 0 28.777 3.223 32 16 19.223 28.777 32 32 28.777 19.223 16 32 3.223z"/></symbol><symbol id="icon-black_phone-solid" viewBox="0 0 32 32"><path d="M6.667 13.147a24.619 24.619 0 0 0 12.755 12.389l.907.404a4.669 4.669 0 0 0 5.773-1.663l1.185-1.765a1.336 1.336 0 0 0-.271-1.78L23 17.492a1.331 1.331 0 0 0-1.908.243l-1.243 1.676a16.186 16.186 0 0 1-7.347-7.348l1.675-1.243a1.339 1.339 0 0 0 .528-.902 1.328 1.328 0 0 0-.285-1.006l-3.24-4.016a1.334 1.334 0 0 0-1.78-.271L7.623 5.817a4.667 4.667 0 0 0-1.649 5.807l.692 1.521z"/></symbol><symbol id="icon-polygon-2" viewBox="0 0 37 32"><path fill="#00538f" style="fill:var(--color1,#00538f)" d="m18.667 0 18.475 32H.192L18.667 0z"/></symbol><symbol id="icon-arrow-up" viewBox="0 0 32 32"><path d="M16 1 1 16h9v16h12V16h9z"/></symbol><symbol id="icon-arrow-right2" viewBox="0 0 32 32"><path d="m19.414 27.414 10-10a2 2 0 0 0 0-2.828l-10-10a2 2 0 1 0-2.828 2.828L23.172 14H4a2 2 0 1 0 0 4h19.172l-6.586 6.586c-.39.39-.586.902-.586 1.414s.195 1.024.586 1.414a2 2 0 0 0 2.828 0z"/></symbol><symbol id="icon-arrow-left2" viewBox="0 0 32 32"><path d="m12.586 27.414-10-10a2 2 0 0 1 0-2.828l10-10a2 2 0 1 1 2.828 2.828L8.828 14H28a2 2 0 1 1 0 4H8.828l6.586 6.586c.39.39.586.902.586 1.414s-.195 1.024-.586 1.414a2 2 0 0 1-2.828 0z"/></symbol><symbol id="icon-circle-right" viewBox="0 0 32 32"><path d="M16 0C7.163 0 0 7.163 0 16s7.163 16 16 16 16-7.163 16-16S24.837 0 16 0zm0 29C8.82 29 3 23.18 3 16S8.82 3 16 3s13 5.82 13 13-5.82 13-13 13z"/><path d="m11.086 22.086 2.829 2.829 8.914-8.914-8.914-8.914-2.828 2.828 6.086 6.086z"/></symbol><symbol id="icon-circle-left" viewBox="0 0 32 32"><path d="M16 32c8.837 0 16-7.163 16-16S24.837 0 16 0 0 7.163 0 16s7.163 16 16 16zm0-29c7.18 0 13 5.82 13 13s-5.82 13-13 13S3 23.18 3 16 8.82 3 16 3z"/><path d="m20.914 9.914-2.829-2.829-8.914 8.914 8.914 8.914 2.828-2.828-6.086-6.086z"/></symbol><symbol id="icon-arrow-right-gal" viewBox="0 0 32 32"><path fill="#00538f" style="fill:var(--color1,#00538f)" d="M32 15.748c0 4.177-1.686 8.182-4.686 11.136S20.244 31.497 16 31.497c-2.101 0-4.182-.407-6.123-1.199s-3.705-1.951-5.191-3.414C1.685 23.931 0 19.925 0 15.748S1.686 7.566 4.686 4.612 11.756-.001 16-.001c2.101 0 4.182.407 6.123 1.199s3.705 1.951 5.191 3.414 2.664 3.198 3.468 5.109A15.538 15.538 0 0 1 32 15.748zM6.4 17.323h12.8l-5.6 5.512 2.272 2.236 9.472-9.323-9.472-9.323L13.6 8.661l5.6 5.512H6.4v3.15z"/></symbol><symbol id="icon-arrow-left-gal" viewBox="0 0 32 32"><path fill="#00538f" style="fill:var(--color1,#00538f)" d="M0 15.845c0 4.177 1.686 8.182 4.686 11.136s7.07 4.613 11.314 4.613c2.101 0 4.182-.407 6.123-1.199s3.705-1.951 5.191-3.414C30.315 24.028 32 20.022 32 15.845s-1.686-8.182-4.686-11.136A16.133 16.133 0 0 0 16 .096c-2.101 0-4.182.407-6.123 1.199S6.172 3.246 4.686 4.709 2.022 7.908 1.218 9.818A15.538 15.538 0 0 0 0 15.845zm25.6 1.575H12.8l5.6 5.512-2.272 2.236-9.472-9.323 9.472-9.323L18.4 8.758l-5.6 5.512h12.8v3.15z"/></symbol><symbol id="icon-fa_arrow-up" viewBox="0 0 35 32"><path fill="#00a08c" style="fill:var(--color1,#00a08c)" d="M34.212 16.935c0 .739-.267 1.391-.802 1.956l-1.625 1.63a2.685 2.685 0 0 1-1.972.826c-.78 0-1.43-.275-1.95-.826l-6.37-6.37v15.304c0 .754-.271 1.366-.813 1.837s-1.195.707-1.961.707h-2.773c-.766 0-1.419-.235-1.961-.707s-.813-1.083-.813-1.837V14.151l-6.37 6.37c-.52.551-1.17.826-1.95.826s-1.43-.275-1.95-.826l-1.625-1.63c-.549-.551-.823-1.203-.823-1.956 0-.768.274-1.428.823-1.978L15.382.805c.506-.536 1.156-.804 1.95-.804.78 0 1.437.268 1.972.804l14.105 14.152c.534.565.802 1.225.802 1.978z"/></symbol></defs></svg>