<svg aria-hidden="true" style="position: absolute; width: 0; height: 0; overflow: hidden;" version="1.1" xmlns="http://www.w3.org/2000/svg" xmlns:xlink="http://www.w3.org/1999/xlink">
<defs>
<symbol id="icon-basil-phone-solid" viewBox="0 0 32 32">
<path fill="#fff" style="fill: var(--color1, #fff)" d="M6.667 13.147c2.56 5.574 7.108 9.993 12.755 12.389l0.907 0.404c1.004 0.447 2.134 0.525 3.19 0.221s1.971-0.971 2.583-1.884l1.185-1.765c0.186-0.277 0.261-0.613 0.21-0.943s-0.222-0.628-0.481-0.837l-4.016-3.24c-0.14-0.113-0.301-0.196-0.474-0.245s-0.354-0.062-0.532-0.040c-0.178 0.023-0.35 0.081-0.505 0.172s-0.29 0.212-0.397 0.356l-1.243 1.676c-3.19-1.575-5.772-4.158-7.347-7.348l1.675-1.243c0.144-0.107 0.265-0.242 0.356-0.397s0.149-0.327 0.172-0.505 0.009-0.359-0.040-0.532c-0.049-0.173-0.132-0.334-0.245-0.474l-3.24-4.016c-0.209-0.259-0.508-0.431-0.837-0.481s-0.666 0.025-0.943 0.21l-1.777 1.192c-0.918 0.616-1.588 1.537-1.89 2.601s-0.217 2.2 0.241 3.206l0.692 1.521z"></path>
</symbol>
<symbol id="icon-fa-arrow-up" viewBox="0 0 35 32">
<path fill="#00a08c" style="fill: var(--color2, #00a08c)" d="M34.212 16.935c0 0.739-0.267 1.391-0.802 1.956l-1.625 1.63c-0.549 0.551-1.206 0.826-1.972 0.826-0.78 0-1.43-0.275-1.95-0.826l-6.37-6.37v15.304c0 0.754-0.271 1.366-0.813 1.837s-1.195 0.707-1.961 0.707h-2.773c-0.766 0-1.419-0.235-1.961-0.707s-0.813-1.083-0.813-1.837v-15.304l-6.37 6.37c-0.52 0.551-1.17 0.826-1.95 0.826s-1.43-0.275-1.95-0.826l-1.625-1.63c-0.549-0.551-0.823-1.203-0.823-1.956 0-0.768 0.274-1.428 0.823-1.978l14.105-14.152c0.506-0.536 1.156-0.804 1.95-0.804 0.78 0 1.437 0.268 1.972 0.804l14.105 14.152c0.534 0.565 0.802 1.225 0.802 1.978z"></path>
</symbol>
<symbol id="icon-infrastructura" viewBox="0 0 36 32">
<path fill="#efa411" style="fill: var(--color3, #efa411)" d="M25.623 7.5c0 3.412-4.591 9.494-6.607 12-0.484 0.6-1.382 0.6-1.859 0-2.016-2.506-6.607-8.588-6.607-12 0-4.144 3.372-7.5 7.536-7.5s7.536 3.356 7.536 7.5zM26.126 12.525c0.22-0.431 0.421-0.863 0.603-1.287 0.031-0.075 0.063-0.156 0.094-0.231l7.285-2.9c0.992-0.394 2.066 0.331 2.066 1.394v16.925c0 0.613-0.377 1.163-0.948 1.394l-9.1 3.619v-18.913zM8.642 8.644c0.151 0.881 0.452 1.769 0.804 2.594 0.182 0.425 0.383 0.856 0.603 1.287v15.713l-7.982 3.181c-0.992 0.394-2.066-0.331-2.066-1.394v-16.925c0-0.612 0.377-1.162 0.948-1.394l7.693-3.062zM20.586 20.75c0.873-1.087 2.242-2.856 3.529-4.813v15.581l-12.058-3.431v-12.15c1.287 1.956 2.657 3.725 3.53 4.812 1.287 1.6 3.712 1.6 4.999 0zM18.087 9.5c0.666 0 1.305-0.263 1.776-0.732s0.736-1.105 0.736-1.768c0-0.663-0.265-1.299-0.736-1.768s-1.11-0.732-1.776-0.732c-0.666 0-1.305 0.263-1.776 0.732s-0.736 1.105-0.736 1.768c0 0.663 0.265 1.299 0.736 1.768s1.11 0.732 1.776 0.732z"></path>
</symbol>
<symbol id="icon-location" viewBox="0 0 32 32">
<path fill="#00a08c" style="fill: var(--color2, #00a08c)" d="M24 20c1.061 0 2.078 0.421 2.828 1.172s1.172 1.768 1.172 2.828-0.421 2.078-1.172 2.828c-0.75 0.75-1.768 1.172-2.828 1.172-0.828 0.002-1.636-0.253-2.312-0.731s-1.187-1.154-1.461-1.936h-1.56v-2.667h1.56c0.547-1.56 2.027-2.667 3.773-2.667zM24 22.667c-0.354 0-0.693 0.14-0.943 0.391s-0.39 0.589-0.39 0.943c0 0.354 0.14 0.693 0.39 0.943s0.589 0.391 0.943 0.391c0.354 0 0.693-0.14 0.943-0.391s0.391-0.589 0.391-0.943c0-0.354-0.14-0.693-0.391-0.943s-0.589-0.391-0.943-0.391zM24 10.667c0.506 0 0.991-0.201 1.348-0.558s0.558-0.843 0.558-1.348c0-0.506-0.201-0.991-0.558-1.348s-0.843-0.558-1.348-0.558c-0.506 0-0.991 0.201-1.348 0.558s-0.558 0.843-0.558 1.348c0 0.506 0.201 0.991 0.558 1.348s0.843 0.558 1.348 0.558zM24 3.427c1.414 0 2.771 0.562 3.771 1.562s1.562 2.357 1.562 3.771c0 3.987-5.333 9.907-5.333 9.907s-5.333-5.92-5.333-9.907c0-1.414 0.562-2.771 1.562-3.771s2.357-1.562 3.771-1.562zM11.773 22.667h1.56v2.667h-1.56c-0.274 0.781-0.785 1.458-1.461 1.936s-1.484 0.733-2.312 0.731c-1.061 0-2.078-0.421-2.828-1.172s-1.172-1.768-1.172-2.828c0-1.747 1.107-3.227 2.667-3.773v-1.56h2.667v1.56c1.133 0.4 2.040 1.307 2.44 2.44zM8 22.667c-0.354 0-0.693 0.14-0.943 0.391s-0.391 0.589-0.391 0.943c0 0.354 0.14 0.693 0.391 0.943s0.589 0.391 0.943 0.391c0.354 0 0.693-0.14 0.943-0.391s0.391-0.589 0.391-0.943c0-0.354-0.14-0.693-0.391-0.943s-0.589-0.391-0.943-0.391zM8 4c1.061 0 2.078 0.421 2.828 1.172s1.172 1.768 1.172 2.828c0 1.747-1.107 3.227-2.667 3.773v1.56h-2.667v-1.56c-0.781-0.274-1.458-0.785-1.936-1.461s-0.733-1.484-0.731-2.312c0-1.061 0.421-2.078 1.172-2.828s1.768-1.172 2.828-1.172zM8 6.667c-0.354 0-0.693 0.141-0.943 0.391s-0.391 0.589-0.391 0.943c0 0.354 0.14 0.693 0.391 0.943s0.589 0.391 0.943 0.391c0.354 0 0.693-0.14 0.943-0.391s0.391-0.589 0.391-0.943c0-0.354-0.14-0.693-0.391-0.943s-0.589-0.391-0.943-0.391zM14.667 25.333v-2.667h2.667v2.667h-2.667zM9.333 17.333h-2.667v-2.667h2.667v2.667z"></path>
</symbol>
<symbol id="icon-logo" viewBox="0 0 542 32">
<path fill="#fff" style="fill: var(--color1, #fff)" d="M780.99 0.718h-795.596v30.097h795.596v-30.097z"></path>
</symbol>
<symbol id="icon-safery" viewBox="0 0 32 32">
<path fill="#00538f" style="fill: var(--color4, #00538f)" d="M16.994 0.263c-0.613-0.35-1.369-0.35-1.988 0l-14 8c-0.619 0.356-1.006 1.019-1.006 1.738v20c0 1.106 0.894 2 2 2s2-0.894 2-2v-18.838l12-6.856 12 6.856v18.838c0 1.106 0.894 2 2 2s2-0.894 2-2v-20c0-0.719-0.388-1.381-1.006-1.738l-14-8zM16 13c0.663 0 1.299-0.263 1.768-0.732s0.732-1.105 0.732-1.768c0-0.663-0.263-1.299-0.732-1.768s-1.105-0.732-1.768-0.732c-0.663 0-1.299 0.263-1.768 0.732s-0.732 1.105-0.732 1.768c0 0.663 0.263 1.299 0.732 1.768s1.105 0.732 1.768 0.732zM15.5 30.5v-5.5h1v5.5c0 0.831 0.669 1.5 1.5 1.5s1.5-0.669 1.5-1.5v-10.906l1.681 3.119c0.394 0.731 1.3 1 2.031 0.613s1-1.3 0.613-2.031l-2.369-4.394c-0.956-1.781-2.819-2.894-4.844-2.894h-1.225c-2.025 0-3.881 1.113-4.844 2.894l-2.369 4.394c-0.394 0.731-0.119 1.638 0.613 2.031s1.638 0.119 2.031-0.613l1.681-3.119v10.906c0 0.831 0.669 1.5 1.5 1.5s1.5-0.669 1.5-1.5z"></path>
</symbol>
<symbol id="icon-stability" viewBox="0 0 40 32">
<path fill="#e7382f" style="fill: var(--color5, #e7382f)" d="M5.637 3.075c-0.679 0-1.331 0.27-1.812 0.75s-0.75 1.132-0.75 1.812v20.497c0 0.68 0.27 1.331 0.75 1.812s1.132 0.751 1.812 0.751h28.695c0.68 0 1.331-0.27 1.812-0.751s0.75-1.132 0.75-1.812v-20.497c0-0.679-0.27-1.331-0.75-1.812s-1.132-0.75-1.812-0.75h-28.695zM1.651 1.651c1.057-1.057 2.491-1.651 3.986-1.651h28.695c1.495 0 2.929 0.594 3.986 1.651s1.651 2.491 1.651 3.986v20.497c0 1.495-0.594 2.929-1.651 3.986s-2.491 1.651-3.986 1.651h-28.695c-1.495 0-2.929-0.594-3.986-1.651s-1.651-2.491-1.651-3.986v-20.497c0-1.495 0.594-2.929 1.651-3.986z"></path>
<path fill="#e7382f" style="fill: var(--color5, #e7382f)" d="M6.149 7.686c0-0.849 0.688-1.537 1.537-1.537h2.050c0.849 0 1.537 0.688 1.537 1.537s-0.688 1.537-1.537 1.537h-2.050c-0.849 0-1.537-0.688-1.537-1.537zM20.049 8.392c0.742 0.412 1.009 1.348 0.597 2.090l-2.148 3.865h5.586c0.545 0 1.049 0.288 1.325 0.758s0.283 1.050 0.019 1.526l-3.417 6.149c-0.412 0.742-1.348 1.009-2.090 0.597s-1.009-1.348-0.597-2.090l2.148-3.865h-5.586c-0.545 0-1.049-0.288-1.325-0.758s-0.283-1.050-0.019-1.526l3.417-6.149c0.412-0.742 1.348-1.009 2.090-0.597z"></path>
</symbol>
<symbol id="icon-logo-mob" viewBox="0 0 191 32">
<path fill="#fff" style="fill: var(--color1, #fff)" d="M275.187-0.133h-280.334v10.605h280.334v-10.605z"></path>
<path fill="#fff" style="fill: var(--color1, #fff)" d="M275.187 10.464h-280.334v10.605h280.334v-10.605z"></path>
<path fill="#fff" style="fill: var(--color1, #fff)" d="M275.187 21.069h-280.334v10.605h280.334v-10.605z"></path>
</symbol>
<symbol id="icon-carbon_menu" viewBox="0 0 32 32">
<path style="fill: var(--color1, #fff)" d="M4 6h24v2h-24v-2zM4 24h24v2h-24v-2zM4 12h24v2h-24v-2zM4 18h24v2h-24v-2z"></path>
</symbol>
<symbol id="icon-polygon" viewBox="0 0 37 32">
<path fill="#00538f" style="fill: var(--color1, #00538f)" d="M18.667 32l-18.475-32h36.95l-18.475 32z"></path>
</symbol>
<symbol id="icon-close-black" viewBox="0 0 32 32">
<path d="M32 3.223l-3.223-3.223-12.777 12.777-12.777-12.777-3.223 3.223 12.777 12.777-12.777 12.777 3.223 3.223 12.777-12.777 12.777 12.777 3.223-3.223-12.777-12.777 12.777-12.777z"></path>
</symbol>
<symbol id="icon-black_phone-solid" viewBox="0 0 32 32">
<path d="M6.667 13.147c2.56 5.574 7.108 9.993 12.755 12.389l0.907 0.404c1.004 0.447 2.134 0.525 3.19 0.221s1.971-0.971 2.583-1.884l1.185-1.765c0.186-0.277 0.261-0.613 0.21-0.943s-0.222-0.628-0.481-0.837l-4.016-3.24c-0.14-0.113-0.301-0.196-0.474-0.245s-0.354-0.062-0.532-0.040c-0.178 0.023-0.35 0.081-0.505 0.172s-0.29 0.212-0.397 0.356l-1.243 1.676c-3.19-1.575-5.772-4.158-7.347-7.348l1.675-1.243c0.144-0.107 0.265-0.242 0.356-0.397s0.149-0.327 0.172-0.505 0.009-0.359-0.040-0.532c-0.049-0.173-0.132-0.334-0.245-0.474l-3.24-4.016c-0.209-0.259-0.508-0.431-0.837-0.481s-0.666 0.025-0.943 0.21l-1.777 1.192c-0.918 0.616-1.588 1.537-1.89 2.601s-0.217 2.2 0.241 3.206l0.692 1.521z"></path>
</symbol>
<symbol id="icon-polygon-2" viewBox="0 0 37 32">
<path fill="#00538f" style="fill: var(--color1, #00538f)" d="M18.667 0l18.475 32h-36.95l18.475-32z"></path>
</symbol>
</defs>
</svg>
